<?xml version="1.0" encoding="utf-8"?>
<!-- Generator: Adobe Illustrator 25.2.3, SVG Export Plug-In . SVG Version: 6.00 Build 0)  -->
<svg version="1.1" id="Layer_1" xmlns="http://www.w3.org/2000/svg" xmlns:xlink="http://www.w3.org/1999/xlink" x="0px" y="0px"
	 viewBox="0 0 360 300" style="enable-background:new 0 0 360 300;" xml:space="preserve">
<style type="text/css">
	.st0{fill:#FFFFFF;}
</style>
<path id="Path_78945" class="st0" d="M24.4,16.3l0.4-8l-4.5-0.2C10.7,7.6,4.6,7.3,1.1,7.2V0c0,0,315.1,11,315.1,67.3
	S195.9,188.2,196.4,220.4c0.8,43.9,122.3,65.3,162.5,79.6H199.5c-4.8-3.6-10.1-5.9-16.2-9.4l-3.5-1.7l-4,7.1l3.5,1.4
	c1.8,1.1,3.6,2.5,5.3,2.5H72.4c0,0-55.9-32.2-54.6-80.2c1.6-59.9,197.7-120.8,196.9-152C213.7,34.9,1.1,24.1,1.1,24.1v-8.9
	c3.6,0.1,9.7,0.4,18.9,0.9L24.4,16.3z M255.5,96.6l2.3-3.3c7.3-10.2,10.8-19.6,10.8-28.6c0-5-2.5-9.8-7.5-14.1l-3-2.6l-5.3,6l3,2.6
	c3.1,2.7,4.7,5.4,4.7,8.1c0,7.2-3.1,15.3-9.3,24l-2.3,3.3L255.5,96.6z M117.9,260.7c10.1,9.3,23.2,16.7,35.8,23.5l3.5,1.9l3.8-7
	l-3.5-1.9c-12.1-6.6-24.8-13.7-34.1-22.4l-2.9-2.7l-5.4,5.9L117.9,260.7z M120.6,192.2l-3,2.6c-12.6,10.9-18.2,19-18.2,26.4
	c0,4.5,0.6,8.9,1.8,13.2l1,3.9l7.7-2.1l-1.1-3.9c-1-3.6-1.5-7.3-1.5-11c0-3.3,2.7-9.4,15.5-20.4l3-2.6L120.6,192.2z M179,150.5
	l-13.8,9.5c-8.5,5.8-16.6,11.4-24.1,16.7l-3.3,2.3l4.6,6.5l3.3-2.3c7.5-5.3,15.5-10.8,24-16.7l13.8-9.5L179,150.5z M199.7,135.8
	l-3.2,2.4l4.7,6.5l3.2-2.4c11.5-8.3,22.5-17.1,33.1-26.6l2.9-2.7l-5.4-5.9l-2.9,2.7C221.7,119.1,210.9,127.8,199.7,135.8
	L199.7,135.8z M190.9,34.4c13.6,2.5,27,5.9,40.2,10.1l3.8,1.3l2.5-7.6l-3.8-1.3c-13.5-4.3-27.3-7.8-41.2-10.3l-3.9-0.8l-1.5,7.8
	L190.9,34.4z M120.6,24.1c14.8,1.7,28.8,3.5,41.5,5.4l4,0.6l1.2-7.9l-4-0.6c-12.8-1.9-26.8-3.7-41.8-5.4l-4-0.4l-0.9,7.9L120.6,24.1
	z M49.6,17.9C64,18.9,78,20,91.4,21.2l4,0.4l0.7-8l-4-0.4c-13.5-1.2-27.6-2.4-42-3.3l-4-0.3l-0.6,8L49.6,17.9z"/>
</svg>
