<?xml version="1.0" encoding="utf-8"?>
<!-- Generator: Adobe Illustrator 25.2.3, SVG Export Plug-In . SVG Version: 6.00 Build 0)  -->
<svg version="1.1" id="Layer_1" xmlns="http://www.w3.org/2000/svg" xmlns:xlink="http://www.w3.org/1999/xlink" x="0px" y="0px"
	 viewBox="0 0 150 150" style="enable-background:new 0 0 150 150;" xml:space="preserve">
<style type="text/css">
	.st0{fill:#00549C;}
	.st1{clip-path:url(#SVGID_2_);}
	.st2{fill:#00315B;}
	.st3{clip-path:url(#SVGID_4_);}
	.st4{fill:#00335F;}
	.st5{fill:#003562;}
	.st6{clip-path:url(#SVGID_6_);}
	.st7{clip-path:url(#SVGID_8_);}
	.st8{clip-path:url(#SVGID_10_);}
	.st9{clip-path:url(#SVGID_12_);}
	.st10{clip-path:url(#SVGID_14_);}
	.st11{clip-path:url(#SVGID_16_);}
	.st12{clip-path:url(#SVGID_18_);}
</style>
<g>
	<g id="Group_40385">
		<path id="Path_78989" class="st0" d="M118.7,91.5c6.2,8.9,12.2,17.6,18.3,26.5c-3.8,2.3-7.5,4.6-11.2,7c-0.3-0.4-0.6-0.7-0.8-1
			c-3.8-5.6-7.7-11.2-11.5-16.8c-0.3-0.4-0.4-0.9-0.3-1.5C115,101.1,116.8,96.5,118.7,91.5z"/>
	</g>
	<g id="Group_40388">
		<g>
			<defs>
				<path id="SVGID_1_" d="M125.8,125h-6.1c-0.3-0.4-0.6-0.7-0.8-1c-3.8-5.6-7.7-11.2-11.5-16.8c-0.3-0.4-0.4-0.9-0.3-1.5
					c1.8-4.6,3.6-9.2,5.5-14.1h6.1c-1.9,4.9-3.8,9.5-5.5,14.1c-0.1,0.5,0,1,0.3,1.5c3.8,5.6,7.7,11.2,11.5,16.8
					C125.3,124.3,125.5,124.6,125.8,125z"/>
			</defs>
			<clipPath id="SVGID_2_">
				<use xlink:href="#SVGID_1_"  style="overflow:visible;"/>
			</clipPath>
			<g id="Group_40387" class="st1">
				<g id="Group_40386">
					<path id="Path_78990" class="st2" d="M125.8,125h-6.1c-0.3-0.4-0.6-0.7-0.8-1c-3.8-5.6-7.7-11.2-11.5-16.8
						c-0.3-0.4-0.4-0.9-0.3-1.5c1.8-4.6,3.6-9.2,5.5-14.1h6.1c-1.9,4.9-3.8,9.5-5.5,14.1c-0.1,0.5,0,1,0.3,1.5
						c3.8,5.6,7.7,11.2,11.5,16.8C125.3,124.3,125.5,124.6,125.8,125"/>
				</g>
			</g>
		</g>
	</g>
	<g id="Group_40391">
		<g>
			<defs>
				<path id="SVGID_3_" d="M98.8,59.7h-6.1c0.1,0,0.2,0,0.4,0h6.1C99,59.7,98.9,59.7,98.8,59.7z"/>
			</defs>
			<clipPath id="SVGID_4_">
				<use xlink:href="#SVGID_3_"  style="overflow:visible;"/>
			</clipPath>
			<g id="Group_40390" class="st3">
				<g id="Group_40389">
					<path id="Path_78992" class="st4" d="M98.8,59.7h-6.1h0H98.8L98.8,59.7"/>
					<path id="Path_78993" class="st5" d="M98.8,59.7h-6.1c0.1,0,0.2,0,0.4,0h6.1C99,59.7,98.9,59.7,98.8,59.7"/>
				</g>
			</g>
		</g>
	</g>
	<g id="Group_40394">
		<g>
			<defs>
				<path id="SVGID_5_" d="M96.6,124.3h-6.1c-2.6,0-5.2-0.1-7.7-0.1h6.1C91.5,124.2,94,124.2,96.6,124.3z"/>
			</defs>
			<clipPath id="SVGID_6_">
				<use xlink:href="#SVGID_5_"  style="overflow:visible;"/>
			</clipPath>
			<g id="Group_40393" class="st6">
				<g id="Group_40392">
					<path id="Path_78995" class="st2" d="M96.6,124.3h-6.1c-2.6,0-5.2-0.1-7.7-0.1h6.1C91.5,124.2,94,124.2,96.6,124.3"/>
				</g>
			</g>
		</g>
	</g>
	<g id="Group_40397">
		<g>
			<defs>
				<path id="SVGID_7_" d="M78.9,64.3h-6.1c0.2,0,0.4,0,0.6-0.1c6.4-1.5,12.8-3,19.3-4.5h6.1c-6.4,1.5-12.8,2.9-19.3,4.5
					C79.3,64.2,79.1,64.3,78.9,64.3z"/>
			</defs>
			<clipPath id="SVGID_8_">
				<use xlink:href="#SVGID_7_"  style="overflow:visible;"/>
			</clipPath>
			<g id="Group_40396" class="st7">
				<g id="Group_40395">
					<path id="Path_78997" class="st5" d="M78.9,64.3h-6.1c0.1,0,0.2,0,0.3,0h6.1C79.2,64.3,79.1,64.3,78.9,64.3"/>
					<path id="Path_78998" class="st4" d="M79.3,64.2h-6.1c0.1,0,0.2,0,0.2,0c6.4-1.5,12.8-3,19.3-4.5h6.1
						c-6.4,1.5-12.8,2.9-19.3,4.5C79.4,64.2,79.4,64.2,79.3,64.2"/>
				</g>
			</g>
		</g>
	</g>
	<g id="Group_40400">
		<g>
			<defs>
				<path id="SVGID_9_" d="M79.2,124.3h-6.1c-3.2,0-6.4,0-9.5,0h6.1C72.8,124.2,76,124.3,79.2,124.3z"/>
			</defs>
			<clipPath id="SVGID_10_">
				<use xlink:href="#SVGID_9_"  style="overflow:visible;"/>
			</clipPath>
			<g id="Group_40399" class="st8">
				<g id="Group_40398">
					<path id="Path_79000" class="st2" d="M79.2,124.3h-6.1c-3.2,0-6.4,0-9.5,0h6.1C72.8,124.2,76,124.3,79.2,124.3"/>
				</g>
			</g>
		</g>
	</g>
	<g id="Group_40403">
		<g>
			<defs>
				<path id="SVGID_11_" d="M58.2,88h-6.1c0.3,0,0.6,0,0.9-0.1c15.7-3.3,31.4-6.6,47.1-9.9c0.6-0.1,1.1-0.2,1.7-0.2h6.1
					c-0.6,0-1.1,0-1.7,0.2c-15.7,3.2-31.4,6.5-47.1,9.9C58.8,88,58.5,88,58.2,88z"/>
			</defs>
			<clipPath id="SVGID_12_">
				<use xlink:href="#SVGID_11_"  style="overflow:visible;"/>
			</clipPath>
			<g id="Group_40402" class="st9">
				<g id="Group_40401">
					<path id="Path_79002" class="st5" d="M58.2,88h-6.1c0.2,0,0.4,0,0.6-0.1h6.1C58.6,88,58.4,88,58.2,88"/>
					<path id="Path_79003" class="st4" d="M58.8,88h-6.1c0.1,0,0.2,0,0.3-0.1c15.7-3.3,31.4-6.6,47.1-9.9c0.1,0,0.2,0,0.3-0.1h6.1
						c-0.1,0-0.2,0-0.3,0.1c-15.7,3.2-31.4,6.5-47.1,9.9C59,87.9,58.9,88,58.8,88"/>
					<path id="Path_79004" class="st5" d="M106.5,78h-6.1c0.5-0.1,0.9-0.1,1.4-0.1h6.1C107.4,77.9,107,77.9,106.5,78"/>
				</g>
			</g>
		</g>
	</g>
	<g id="Group_40406">
		<g>
			<defs>
				<path id="SVGID_13_" d="M61.7,80.5h-6.1c-0.6,0-1.2-0.4-1.5-1c-3-4.4-6-8.7-9-13.1c-3.7-5.2-2.5-12.4,2.7-16.2
					c2-1.4,4.3-2.2,6.7-2.2h6.1c-2.4,0-4.8,0.8-6.7,2.2c-5.2,3.8-6.3,11-2.7,16.2c3,4.3,6.1,8.7,9,13.1
					C60.5,80.1,61.1,80.5,61.7,80.5z"/>
			</defs>
			<clipPath id="SVGID_14_">
				<use xlink:href="#SVGID_13_"  style="overflow:visible;"/>
			</clipPath>
			<g id="Group_40405" class="st10">
				<g id="Group_40404">
					<path id="Path_79006" class="st2" d="M61.7,80.5h-6.1c-0.6,0-1.2-0.4-1.5-1c-3-4.4-6-8.7-9-13.1c-3.7-5.2-2.5-12.4,2.7-16.2
						c0.7-0.5,1.5-1,2.4-1.3h6.1c-0.8,0.3-1.6,0.8-2.4,1.3c-5.2,3.8-6.3,11-2.7,16.2c3,4.3,6.1,8.7,9,13.1
						C60.5,80.1,61.1,80.5,61.7,80.5"/>
					<path id="Path_79007" class="st4" d="M56.2,48.9h-6.1c0.8-0.3,1.6-0.6,2.5-0.7h6.1C57.8,48.3,57,48.6,56.2,48.9"/>
					<path id="Path_79008" class="st5" d="M58.7,48.2h-6.1c0.6-0.1,1.2-0.1,1.8-0.1h6.1C59.9,48,59.3,48.1,58.7,48.2"/>
				</g>
			</g>
		</g>
	</g>
	<g id="Group_40407">
		<path id="Path_79010" class="st0" d="M60.5,48c3.7,0,7.2,1.8,9.4,4.8c2.6,3.6,5.2,7.1,7.8,10.7c0.2,0.4,0.7,0.7,1.2,0.7
			c0.2,0,0.4,0,0.6-0.1c6.4-1.5,12.8-3,19.3-4.5c0.1,0,0.2,0,0.4,0c0.8,3.8,1.7,7.6,2.5,11.5c-1.4,0.3-2.8,0.7-4.1,1
			c-11.7,2.7-23.5,5.4-35.2,8.1c-0.2,0.1-0.5,0.1-0.7,0.1c-0.6,0-1.2-0.4-1.5-1c-3-4.4-6-8.7-9-13.1c-3.7-5.2-2.5-12.4,2.7-16.2
			C55.8,48.8,58.1,48,60.5,48z"/>
	</g>
	<g id="Group_40408">
		<path id="Path_79011" class="st0" d="M45.2,25c1.2,0.3,2.3,0.8,3.4,1.3c5.4,2.7,7.5,9.3,4.7,14.7c-1.9,3.6-5.6,5.9-9.7,5.9
			c-0.3,0-0.7,0-1-0.1c-6-0.6-10.3-6-9.7-12c0.5-4.4,3.6-8.1,7.9-9.4c0.4-0.1,0.9-0.3,1.3-0.4L45.2,25z"/>
	</g>
	<g id="Group_40411">
		<g>
			<defs>
				<path id="SVGID_15_" d="M43.7,46.9h-6.1c-0.3,0-0.7,0-1-0.1c-6-0.6-10.3-6-9.7-12c0.5-4.4,3.6-8.1,7.9-9.4
					c0.4-0.1,0.9-0.3,1.3-0.4h6.1c-0.4,0.1-0.9,0.3-1.3,0.4c-5.8,1.6-9.2,7.7-7.6,13.5c1.2,4.3,4.9,7.4,9.4,7.9
					C43,46.8,43.4,46.9,43.7,46.9z"/>
			</defs>
			<clipPath id="SVGID_16_">
				<use xlink:href="#SVGID_15_"  style="overflow:visible;"/>
			</clipPath>
			<g id="Group_40410" class="st11">
				<g id="Group_40409">
					<path id="Path_79012" class="st2" d="M43.7,46.9h-6.1c-0.3,0-0.7,0-1-0.1c-6-0.6-10.3-6-9.7-12c0.4-4,3-7.4,6.6-8.9h6.1
						c-5.6,2.3-8.2,8.8-5.8,14.3c1.5,3.7,5,6.2,8.9,6.6C43,46.8,43.4,46.9,43.7,46.9"/>
					<path id="Path_79013" class="st4" d="M39.6,25.9h-6.1c0.4-0.2,0.8-0.3,1.3-0.4c0.4-0.1,0.9-0.3,1.3-0.4h6.1
						c-0.4,0.1-0.9,0.3-1.3,0.4C40.4,25.5,40,25.7,39.6,25.9"/>
				</g>
			</g>
		</g>
	</g>
	<g id="Group_40414">
		<g>
			<defs>
				<path id="SVGID_17_" d="M61.7,124.3h-6.1c-0.8,0.1-1.6-0.4-1.9-1.1c-12.6-24.7-25.2-49.3-37.9-74c-0.8-1.6-1.7-3.3-2.5-4.9
					c-0.8-1.5-0.5-3.2,0.6-3.9c0.4-0.2,0.8-0.3,1.3-0.3h6.1c-0.5,0-0.9,0.1-1.3,0.3c-1.1,0.7-1.4,2.4-0.6,3.9
					c0.8,1.6,1.7,3.3,2.5,4.9c12.6,24.7,25.3,49.3,37.9,74C60.1,123.9,60.9,124.4,61.7,124.3z"/>
			</defs>
			<clipPath id="SVGID_18_">
				<use xlink:href="#SVGID_17_"  style="overflow:visible;"/>
			</clipPath>
			<g id="Group_40413" class="st12">
				<g id="Group_40412">
					<path id="Path_79015" class="st2" d="M61.7,124.3h-6.1c-0.8,0.1-1.6-0.4-1.9-1.1c-12.6-24.7-25.2-49.3-37.9-74
						c-0.8-1.6-1.7-3.3-2.5-4.9c-0.8-1.5-0.5-3.2,0.6-3.9c0.1-0.1,0.2-0.1,0.3-0.1h6.1c-0.1,0-0.2,0.1-0.3,0.1
						c-1.1,0.7-1.4,2.4-0.6,3.9c0.8,1.6,1.7,3.3,2.5,4.9c12.6,24.7,25.3,49.3,37.9,74C60.1,123.9,60.9,124.4,61.7,124.3"/>
					<path id="Path_79016" class="st4" d="M20.4,40.2h-6.1c0.2-0.1,0.3-0.1,0.5-0.1h6.1C20.7,40.1,20.5,40.2,20.4,40.2"/>
					<path id="Path_79017" class="st5" d="M20.9,40.1h-6.1c0.2,0,0.3,0,0.5,0h6.1C21.2,40,21,40,20.9,40.1"/>
				</g>
			</g>
		</g>
	</g>
	<g id="Group_40415">
		<path id="Path_79019" class="st0" d="M21.4,40c1.1,0,2.2,0.5,2.9,1.4c10.7,15.1,21.3,30.2,32,45.4c0.4,0.7,1.2,1.2,2,1.2
			c0.3,0,0.6,0,0.9-0.1c15.7-3.3,31.4-6.6,47.1-9.9c0.6-0.1,1.1-0.2,1.7-0.2c1,0,1.9,0.1,2.9,0.3c2,0.3,3.3,2.1,3.1,4.1
			c-0.1,1.5-0.4,3-0.9,4.5c-4.7,12-9.4,23.9-14.1,35.8c-0.5,1.1-0.9,1.7-2.2,1.7c-2.6,0-5.2-0.1-7.7-0.1c-3.2,0-6.5,0-9.7,0
			c-3.2,0-6.4,0-9.5,0c-2.6,0-5.3,0-7.9,0c-0.8,0.1-1.6-0.4-1.9-1.1C47.2,98.5,34.6,73.8,22,49.2c-0.8-1.6-1.7-3.3-2.5-4.9
			c-0.8-1.5-0.5-3.2,0.6-3.9C20.5,40.1,20.9,40,21.4,40z"/>
	</g>
</g>
</svg>
