<?xml version="1.0" encoding="utf-8"?>
<!-- Generator: Adobe Illustrator 25.2.3, SVG Export Plug-In . SVG Version: 6.00 Build 0)  -->
<svg version="1.1" id="Layer_1" xmlns="http://www.w3.org/2000/svg" xmlns:xlink="http://www.w3.org/1999/xlink" x="0px" y="0px"
	 viewBox="0 0 80 60" style="enable-background:new 0 0 80 60;" xml:space="preserve">
<style type="text/css">
	.st0{fill:#1A1A1A;}
</style>
<path id="Path_78947" class="st0" d="M0.1,31.3v17.4l0,0c0,0.7,0.6,1.3,1.3,1.3h8.1c0.6,4.1,3.8,7.3,7.9,7.9
	c5.1,0.7,9.8-2.8,10.5-7.9h25.5c0.6,4.1,3.8,7.3,7.9,7.9c5,0.7,9.8-2.8,10.5-7.9h6.8l0,0c0.7,0,1.3-0.6,1.3-1.4V3.3l0,0
	c0-0.7-0.6-1.3-1.3-1.3H33.2l0,0c-0.7,0-1.3,0.6-1.3,1.3v9.4H21.3c-0.3,0-0.7,0.1-0.9,0.3l-20,17.3C0.1,30.6-0.1,30.9,0.1,31.3z
	 M77.2,32.7H34.5v-28h42.7V32.7z M62.6,55.3c-3.7,0-6.7-3-6.7-6.7s3-6.7,6.7-6.7s6.7,3,6.7,6.7S66.3,55.3,62.6,55.3L62.6,55.3z
	 M34.6,47.3v-4h8v4H34.6z M18.6,55.3c-3.7,0-6.7-3-6.7-6.7s3-6.7,6.7-6.7s6.7,3,6.7,6.7S22.3,55.3,18.6,55.3L18.6,55.3z M2.5,31.9
	l19.2-16.6h10.2V34l0,0c0,0.7,0.6,1.3,1.3,1.3h44v12h-5.5c-0.6-4.1-3.8-7.3-7.9-7.9c-5-0.7-9.8,2.8-10.5,7.9h-8.1V42l0,0
	c0-0.7-0.6-1.3-1.3-1.3H33.2l0,0c-0.7,0-1.3,0.6-1.3,1.3v5.3h-4.1c-0.6-4.1-3.8-7.3-7.9-7.9c-5.1-0.7-9.8,2.8-10.5,7.9H2.6L2.5,31.9
	z M24.5,18.1C24,17.9,23.4,18,23,18.3L5.9,33c-0.3,0.2-0.5,0.6-0.5,1c0,0.7,0.6,1.3,1.3,1.3H24l0,0c0.7,0,1.3-0.6,1.3-1.3V19.3
	C25.3,18.8,25,18.3,24.5,18.1L24.5,18.1z M22.6,32.7H10.2l12.4-10.5V32.7z M62.6,44.7c-2.2,0-4,1.8-4,4l0,0c0,2.2,1.8,4,4,4
	s4-1.8,4-4S64.8,44.7,62.6,44.7L62.6,44.7z M62.6,50c-0.8,0-1.4-0.6-1.3-1.3c0-0.7,0.6-1.3,1.3-1.3s1.3,0.6,1.3,1.3S63.3,50,62.6,50
	L62.6,50z M18.6,44.7c-2.2,0-4,1.8-4,4l0,0c0,2.2,1.8,4,4,4s4-1.8,4-4S20.8,44.7,18.6,44.7L18.6,44.7z M18.6,50L18.6,50
	c-0.8,0-1.4-0.6-1.3-1.3c0-0.7,0.6-1.3,1.3-1.3s1.3,0.6,1.3,1.3S19.3,50,18.6,50L18.6,50z"/>
</svg>
