<?xml version="1.0" encoding="utf-8"?>
<!-- Generator: Adobe Illustrator 25.2.3, SVG Export Plug-In . SVG Version: 6.00 Build 0)  -->
<svg version="1.1" id="Layer_1" xmlns="http://www.w3.org/2000/svg" xmlns:xlink="http://www.w3.org/1999/xlink" x="0px" y="0px"
	 viewBox="0 0 80 60" style="enable-background:new 0 0 80 60;" xml:space="preserve">
<style type="text/css">
	.st0{fill:#1A1A1A;}
</style>
<g id="Group_40573" transform="translate(-997 -1226.017)">
	<path id="Path_78950" class="st0" d="M1060.2,1243.4c0.4-0.4,0.6-0.9,0.6-1.5c0-1.4,0-2.9,0-4.3v-3.9c0-1.4-0.5-2.1-1.5-2.1
		c-1,0.1-1.5,0.8-1.5,2.1c0,2.4,0,4.8,0,7.2c0,0.4-0.2,0.8-0.5,1.1c-0.8,0.7-1.5,1.5-2.2,2.2c-0.7,0.8-0.8,1.6-0.2,2.3
		c0.1,0.1,0.1,0.2,0.2,0.2c0.7,0.5,1.7,0.4,2.2-0.3C1058.3,1245.4,1059.2,1244.4,1060.2,1243.4z"/>
	<path id="Path_78951" class="st0" d="M1003.9,1263.8c-0.1,0.2-0.2,0.4-0.2,0.6c0,0.6,0.5,1,1,1h14.5c0.6,0,1-0.5,1-1v-9.9
		c0-0.6-0.5-1-1-1h-6c-0.3,0-0.5,0.1-0.7,0.3L1003.9,1263.8z M1006.8,1263.4l6.8-8h4.6v8h-1.6c-0.2-0.6-0.6-1.2-1.1-1.6
		c0.6-0.3,1-0.7,1.2-1.2c0.5-1.2,0-2.6-1.2-3.1s-2.6,0-3.1,1.2s0,2.6,1.2,3.1c-0.5,0.4-0.9,1-1.1,1.6H1006.8z"/>
	<path id="Path_78952" class="st0" d="M1057.9,1278.1c0,0.5,0.1,1,0.4,1.4c0.8,1.3,2.4,1.7,3.7,0.9c1.3-0.8,1.7-2.4,0.9-3.7
		c-0.8-1.3-2.4-1.7-3.7-0.9C1058.4,1276.2,1057.9,1277.1,1057.9,1278.1z"/>
	<path id="Path_78953" class="st0" d="M1012,1275.5c-1.4,0-2.6,1.2-2.7,2.7c0,1.5,1.2,2.7,2.7,2.7s2.7-1.2,2.7-2.7
		S1013.5,1275.5,1012,1275.5L1012,1275.5z"/>
	<path id="Path_78954" class="st0" d="M1016.7,1267.1c0,0.5,0.7,0.8,1.6,0.8s1.6-0.3,1.6-0.8s-0.7-0.8-1.6-0.8
		C1017.5,1266.3,1016.7,1266.6,1016.7,1267.1z"/>
	<path id="Path_78955" class="st0" d="M999.1,1264c0,4.5,0,9,0,13.5c0,1.5,0.5,2,2,2c1.2,0,2.5,0,3.7,0c0.5,0,0.7,0.2,0.8,0.6
		c0.4,1.2,1,2.2,1.9,3c2.7,2.6,7,2.4,9.6-0.3c0.7-0.7,1.2-1.6,1.5-2.6c0.1-0.5,0.4-0.6,0.8-0.6c11.4,0,22.7,0,34.1,0l0,0
		c0.4-0.1,0.7,0.2,0.8,0.6c0.7,2.1,2.4,3.7,4.5,4.4c3.6,1.2,7.4-0.8,8.5-4.4c0.1-0.4,0.3-0.6,0.8-0.6c0.7,0,1.4,0,2.1,0
		c0.1,0,0.2,0,0.3,0c0.8,0,1.4-0.8,1.4-1.6v-0.3v-0.1v-0.8v-0.1v-3.8c0-0.1,0-0.1,0-0.2v-4.8l0.1-16.9c0-0.2,0.1-0.4,0.2-0.5
		c0.9-1.4,1.6-2.9,2-4.5c0.7-3,0.5-6.2-0.5-9.2c-1.9-5.2-6.5-8.9-11.9-9.6c-7.7-1.3-15,3.5-17,11c-0.1,0.5-0.4,0.6-0.9,0.6
		c-6.7,0-13.5,0-20.2,0c-1.8,0-2.2,0.5-2.2,2.2c0,2.5,0,5.1,0,7.6c0.1,0.6-0.1,0.8-0.7,0.8c-2.9,0-5.7,0-8.6,0
		c-0.8-0.1-1.4,0.2-1.9,0.8c-3.6,4-7.1,8-10.6,12C999.2,1262.8,998.9,1263.5,999.1,1264z M1071.5,1242.2c0,6.7-5.4,12.1-12.1,12.2
		h-0.1c-6.7,0-12.2-5.5-12.2-12.2s5.5-12.2,12.2-12.2C1066,1230,1071.5,1235.5,1071.5,1242.2L1071.5,1242.2z M1068.7,1254.2
		c0,4.2,0,8.3-0.1,12.4c0,0.5-0.3,0.5-0.6,0.5c-14.4,0-28.7,0-43.1,0l0,0c-0.5,0-0.6-0.1-0.6-0.6c0-8,0-16,0-24
		c0-0.4,0.1-0.6,0.6-0.6c6.2,0,12.5,0,18.7,0c0.4,0,0.5,0.1,0.5,0.5c0,1.2,0.2,2.4,0.5,3.6c0.1,0.2,0.1,0.5,0.2,0.7
		c2.5,8,11,12.6,19,10.1C1065.6,1256.2,1067.2,1255.3,1068.7,1254.2L1068.7,1254.2z M1062.3,1270h4.5l1.9,1.9c0,1.3,0,2.5,0,3.8
		c0,0.3,0,0.5,0,0.7L1062.3,1270z M1060.5,1282c-2.1,0-3.7-1.7-3.8-3.8c0-0.2,0-0.3,0-0.4c0.1-1.1,0.8-2.2,1.7-2.8
		c0.6-0.5,1.3-0.7,2.1-0.7c2.1,0.1,3.8,1.8,3.8,3.9l0,0l0,0C1064.3,1280.3,1062.6,1282,1060.5,1282L1060.5,1282L1060.5,1282z
		 M1053.5,1270.1h4.4l1.4,1.4c-1.1,0.2-2.1,0.7-3,1.4L1053.5,1270.1z M1051.2,1276.6l-6.6-6.6h4.4l5.4,5.4c-0.1,0.3-0.2,0.5-0.3,0.8
		l0,0c-0.1,0.3-0.4,0.5-0.7,0.5L1051.2,1276.6z M1042.3,1276.6l-6.6-6.6h4.3l6.7,6.7L1042.3,1276.6z M1037.8,1276.8h-4.4l-6.7-6.7
		c1.5,0,3,0,4.5,0L1037.8,1276.8L1037.8,1276.8z M1024.9,1276.7c-0.5,0-0.6-0.2-0.6-0.6c0-1.3,0-2.6,0-3.9l4.5,4.5H1024.9
		L1024.9,1276.7L1024.9,1276.7z M1011.9,1282L1011.9,1282c-2.1,0-3.8-1.6-3.8-3.8c-0.1-2.1,1.6-3.8,3.7-3.9c2.1,0,3.8,1.7,3.9,3.8
		C1015.7,1280.2,1014,1281.9,1011.9,1282L1011.9,1282L1011.9,1282z M1001.9,1276c0.1-3.4,0.1-8.5-0.1-11.8l10.2-11.8
		c2.2,0,6.3,0,8.5,0c0.5,0,0.7,0.1,0.7,0.7c0,3.8,0,7.6,0,11.4c0,3.4,0,6.8,0,10.2c0,0.7,0.2,1.5-0.1,1.9c-0.4,0.4-1.3,0-1.9,0.1
		c-0.6,0-0.9-0.2-1.1-0.8c-0.7-2.5-3-4.3-5.6-4.5c-2.7-0.4-5.4,1-6.7,3.4c-0.3,0.6-0.2,1.5-0.9,1.8c-0.7,0.2-1.4,0.2-2.1,0.1
		c-0.1,0-0.1,0-0.2,0l0,0C1002.1,1276.8,1001.9,1276.6,1001.9,1276L1001.9,1276z"/>
</g>
</svg>
