<?xml version="1.0" encoding="utf-8"?>
<!-- Generator: Adobe Illustrator 25.2.3, SVG Export Plug-In . SVG Version: 6.00 Build 0)  -->
<svg version="1.1" id="Layer_1" xmlns="http://www.w3.org/2000/svg" xmlns:xlink="http://www.w3.org/1999/xlink" x="0px" y="0px"
	 viewBox="0 0 80 60" style="enable-background:new 0 0 80 60;" xml:space="preserve">
<style type="text/css">
	.st0{fill:#1A1A1A;}
</style>
<path id="Path_78946" class="st0" d="M68.9,49.3c-2.5,0-4.8-1.7-5.5-4.1l-0.1-0.4h-2.5c-0.7,0-1.2-0.5-1.2-1.2v-3.3H27.6l0.4,0.8
	c0.4,0.8,0.6,1.6,0.6,2.5c0,3.2-2.6,5.7-5.7,5.7c-3.2,0-5.7-2.6-5.7-5.7c0-0.8,0.2-1.7,0.6-2.5l0.4-0.8h-4l0.4,0.8
	c0.4,0.8,0.6,1.6,0.6,2.5c0,3.2-2.6,5.7-5.7,5.7c-3.2,0-5.7-2.6-5.7-5.7c0-0.8,0.2-1.7,0.6-2.5l0.4-0.8H1.2C0.5,40.2,0,39.7,0,39V12
	c0-0.7,0.5-1.2,1.2-1.2h59.5c0.7,0,1.2,0.5,1.2,1.2v3.3h13.2c0.3,0,0.6,0.1,0.8,0.4l3.6,3.6c0.2,0.2,0.4,0.5,0.4,0.8v23.4
	c0,0.7-0.5,1.2-1.2,1.2h-4.3l-0.1,0.4C73.6,47.6,71.4,49.2,68.9,49.3z M68.9,40.2c-1.8,0-3.3,1.5-3.3,3.3s1.5,3.3,3.3,3.3l0,0l0,0
	c1.8,0,3.3-1.4,3.3-3.2v-0.1C72.2,41.7,70.7,40.2,68.9,40.2L68.9,40.2z M22.9,40.2c-1.8,0-3.3,1.5-3.3,3.3c0,1.8,1.5,3.3,3.3,3.3
	c1.8,0,3.3-1.5,3.3-3.3c0-1.8-1.4-3.3-3.2-3.3H22.9z M9.3,40.2c-1.8,0-3.3,1.5-3.3,3.3c0,1.8,1.5,3.3,3.3,3.3c1.8,0,3.3-1.5,3.3-3.3
	c0-1.8-1.4-3.3-3.2-3.3H9.3z M68.9,37.8c2.5,0,4.8,1.7,5.5,4.1l0.1,0.4h3.1V29.4H62v12.9h1.3l0.1-0.4C64.1,39.5,66.3,37.8,68.9,37.8
	L68.9,37.8z M2.4,37.8h57.1V13.2H2.4L2.4,37.8z M62,27h15.6v-6.4l-2.9-2.9H62L62,27z M66.2,34.8c-0.7,0-1.2-0.5-1.2-1.2
	c0-0.7,0.5-1.2,1.2-1.2l0,0h2.7c0.7,0,1.2,0.5,1.2,1.2c0,0.7-0.5,1.2-1.2,1.2H66.2z"/>
</svg>
