<?xml version="1.0" encoding="utf-8"?>
<!-- Generator: Adobe Illustrator 25.2.3, SVG Export Plug-In . SVG Version: 6.00 Build 0)  -->
<svg version="1.1" id="Layer_1" xmlns="http://www.w3.org/2000/svg" xmlns:xlink="http://www.w3.org/1999/xlink" x="0px" y="0px"
	 viewBox="0 0 80 60" style="enable-background:new 0 0 80 60;" xml:space="preserve">
<style type="text/css">
	.st0{fill:#1A1A1A;}
</style>
<path id="Path_78946" class="st0" d="M5.6,45.1l-0.1-0.4H1.2c-0.7,0-1.2-0.5-1.2-1.2l0-23.4c0-0.3,0.2-0.6,0.4-0.8L4,15.7
	c0.2-0.3,0.5-0.4,0.8-0.4H18V12c0-0.7,0.5-1.2,1.2-1.2h59.5c0.7,0,1.2,0.5,1.2,1.2v27c0,0.7-0.5,1.2-1.2,1.3h-3.6l0.4,0.8
	c0.4,0.8,0.6,1.7,0.6,2.5c0,3.1-2.5,5.7-5.7,5.7c-3.1,0-5.7-2.5-5.7-5.7c0-0.9,0.2-1.7,0.6-2.5l0.4-0.8h-4l0.4,0.8
	c0.4,0.8,0.6,1.7,0.6,2.5c0,3.1-2.5,5.7-5.7,5.7c-3.1,0-5.7-2.5-5.7-5.7c0-0.9,0.2-1.7,0.6-2.5l0.4-0.8h-32v3.3
	c0,0.7-0.5,1.2-1.2,1.2h-2.5l-0.1,0.4c-0.7,2.4-3,4.1-5.5,4.1C8.5,49.2,6.3,47.6,5.6,45.1z M11,40.2c-1.8,0-3.3,1.5-3.3,3.3v0.1
	c0,1.8,1.5,3.2,3.3,3.2l0,0l0,0c1.8,0,3.3-1.5,3.3-3.3S12.8,40.2,11,40.2L11,40.2z M56.9,40.2c-1.8,0-3.2,1.5-3.2,3.3
	s1.5,3.3,3.3,3.3s3.3-1.5,3.3-3.3S58.8,40.2,56.9,40.2L56.9,40.2z M70.5,40.2c-1.8,0-3.2,1.5-3.2,3.3s1.5,3.3,3.3,3.3
	c1.8,0,3.3-1.5,3.3-3.3S72.4,40.2,70.5,40.2L70.5,40.2z M11,37.8c2.6,0,4.8,1.7,5.5,4.1l0.1,0.4h1.3V29.4H2.3v12.9h3.1l0.1-0.4
	C6.2,39.5,8.5,37.8,11,37.8L11,37.8z M77.5,13.2H20.4v24.6h57.1V13.2z M17.9,17.7H5.2l-2.9,2.9V27h15.6V17.7z M11,34.8
	c-0.7,0-1.2-0.5-1.2-1.2s0.5-1.2,1.2-1.2h2.7l0,0c0.7,0,1.2,0.5,1.2,1.2s-0.5,1.2-1.2,1.2H11z"/>
</svg>
