<?xml version="1.0" encoding="utf-8"?>
<!-- Generator: Adobe Illustrator 25.2.3, SVG Export Plug-In . SVG Version: 6.00 Build 0)  -->
<svg version="1.1" id="Layer_1" xmlns="http://www.w3.org/2000/svg" xmlns:xlink="http://www.w3.org/1999/xlink" x="0px" y="0px"
	 viewBox="0 0 80 60" style="enable-background:new 0 0 80 60;" xml:space="preserve">
<style type="text/css">
	.st0{fill:#1A1A1A;}
</style>
<path id="Path_78947" class="st0" d="M79.5,30.3L59.5,13c-0.2-0.2-0.6-0.3-0.9-0.3H48V3.3C48,2.6,47.4,2,46.7,2c0,0,0,0,0,0H1.3
	C0.6,2,0,2.6,0,3.3c0,0,0,0,0,0v45.3C0,49.4,0.6,50,1.3,50c0,0,0,0,0,0h6.8c0.7,5.1,5.5,8.6,10.5,7.9c4.1-0.6,7.3-3.8,7.9-7.9h25.5
	c0.7,5.1,5.4,8.6,10.5,7.9c4.1-0.6,7.3-3.8,7.9-7.9h8.1c0.7,0,1.3-0.6,1.3-1.3c0,0,0,0,0,0V31.3C80,30.9,79.8,30.6,79.5,30.3z
	 M2.7,4.7h42.7v28H2.7V4.7z M17.3,55.3c-3.7,0-6.7-3-6.7-6.7c0-3.7,3-6.7,6.7-6.7c3.7,0,6.7,3,6.7,6.7C24,52.3,21,55.3,17.3,55.3
	L17.3,55.3z M37.3,47.3v-4h8v4H37.3z M61.3,55.3c-3.7,0-6.7-3-6.7-6.7c0-3.7,3-6.7,6.7-6.7c3.7,0,6.7,3,6.7,6.7
	C68,52.3,65,55.3,61.3,55.3L61.3,55.3z M77.3,47.3h-6.8c-0.7-5.1-5.4-8.6-10.5-7.9c-4.1,0.6-7.3,3.8-7.9,7.9H48V42
	c0-0.7-0.6-1.3-1.3-1.3c0,0,0,0,0,0H36c-0.7,0-1.3,0.6-1.3,1.3c0,0,0,0,0,0v5.3h-8.1c-0.7-5.1-5.5-8.6-10.5-7.9
	c-4.1,0.6-7.3,3.8-7.9,7.9H2.7v-12h44c0.7,0,1.3-0.6,1.3-1.3c0,0,0,0,0,0V15.3h10.2l19.2,16.6L77.3,47.3z M55.4,18.1
	c-0.5,0.2-0.8,0.7-0.8,1.2V34c0,0.7,0.6,1.3,1.3,1.3c0,0,0,0,0,0h17.3c0.7,0,1.3-0.6,1.3-1.3c0-0.4-0.2-0.8-0.5-1L56.9,18.3
	C56.5,18,55.9,17.9,55.4,18.1L55.4,18.1z M57.3,22.2l12.4,10.5H57.3L57.3,22.2z M17.3,44.7c-2.2,0-4,1.8-4,4c0,2.2,1.8,4,4,4
	c2.2,0,4-1.8,4-4c0,0,0,0,0,0C21.3,46.5,19.5,44.7,17.3,44.7L17.3,44.7z M17.3,50c-0.7,0-1.3-0.6-1.3-1.3c0-0.7,0.6-1.3,1.3-1.3
	c0.7,0,1.3,0.6,1.3,1.3C18.7,49.4,18.1,50,17.3,50L17.3,50z M61.3,44.7c-2.2,0-4,1.8-4,4c0,2.2,1.8,4,4,4c2.2,0,4-1.8,4-4
	c0,0,0,0,0,0C65.3,46.5,63.5,44.7,61.3,44.7L61.3,44.7z M61.3,50c-0.7,0-1.3-0.6-1.3-1.3c0-0.7,0.6-1.3,1.3-1.3
	c0.7,0,1.3,0.6,1.3,1.3C62.7,49.4,62.1,50,61.3,50C61.3,50,61.3,50,61.3,50L61.3,50z"/>
</svg>
