<?xml version="1.0" encoding="utf-8"?>
<!-- Generator: Adobe Illustrator 25.2.3, SVG Export Plug-In . SVG Version: 6.00 Build 0)  -->
<svg version="1.1" id="Layer_1" xmlns="http://www.w3.org/2000/svg" xmlns:xlink="http://www.w3.org/1999/xlink" x="0px" y="0px"
	 viewBox="0 0 80 60" style="enable-background:new 0 0 80 60;" xml:space="preserve">
<style type="text/css">
	.st0{fill:#1A1A1A;}
</style>
<g id="Group_40573" transform="translate(-997 -1226.017)">
	<path id="Path_78950" class="st0" d="M1016.4,1246.4c0.5,0.7,1.5,0.8,2.2,0.3c0.1,0,0.1-0.1,0.2-0.2c0.6-0.7,0.5-1.5-0.2-2.3
		c-0.7-0.7-1.4-1.5-2.2-2.2c-0.3-0.3-0.5-0.7-0.5-1.1c0-2.4,0-4.8,0-7.2c0-1.3-0.5-2-1.5-2.1c-1,0-1.5,0.7-1.5,2.1v3.9
		c0,1.4,0,2.9,0,4.3c0,0.6,0.2,1.1,0.6,1.5C1014.5,1244.4,1015.4,1245.4,1016.4,1246.4z"/>
	<path id="Path_78951" class="st0" d="M1061.2,1253.8c-0.2-0.2-0.4-0.3-0.7-0.3h-6c-0.5,0-1,0.4-1,1v9.9c0,0.5,0.4,1,1,1h14.5
		c0.5,0,1-0.4,1-1c0-0.2-0.1-0.4-0.2-0.6L1061.2,1253.8z M1061.2,1263.4c-0.2-0.6-0.6-1.2-1.1-1.6c1.2-0.5,1.7-1.9,1.2-3.1
		c-0.5-1.2-1.9-1.7-3.1-1.2c-1.2,0.5-1.7,1.9-1.2,3.1c0.2,0.5,0.6,0.9,1.2,1.2c-0.5,0.4-0.9,1-1.1,1.6h-1.6v-8h4.6l6.8,8H1061.2z"/>
	<path id="Path_78952" class="st0" d="M1014.5,1275.8c-1.3-0.8-2.9-0.4-3.7,0.9c-0.8,1.3-0.4,2.9,0.9,3.7c1.3,0.8,2.9,0.4,3.7-0.9
		c0.3-0.4,0.4-0.9,0.4-1.4C1015.8,1277.1,1015.3,1276.2,1014.5,1275.8z"/>
	<path id="Path_78953" class="st0" d="M1061.7,1275.5c-1.5,0-2.7,1.2-2.7,2.7c0,1.5,1.2,2.7,2.7,2.7c1.5,0,2.7-1.2,2.7-2.7
		C1064.3,1276.7,1063.1,1275.5,1061.7,1275.5C1061.7,1275.5,1061.7,1275.5,1061.7,1275.5z"/>
	<path id="Path_78954" class="st0" d="M1055.4,1266.3c-0.9,0-1.6,0.3-1.6,0.8s0.7,0.8,1.6,0.8c0.9,0,1.6-0.3,1.6-0.8
		S1056.2,1266.3,1055.4,1266.3z"/>
	<path id="Path_78955" class="st0" d="M1074,1262.2c-3.5-4-7-8-10.6-12c-0.5-0.6-1.1-0.9-1.9-0.8c-2.9,0-5.7,0-8.6,0
		c-0.6,0-0.8-0.2-0.7-0.8c0-2.5,0-5.1,0-7.6c0-1.7-0.4-2.2-2.2-2.2c-6.7,0-13.5,0-20.2,0c-0.5,0-0.8-0.1-0.9-0.6
		c-2-7.5-9.3-12.3-17-11c-5.4,0.7-10,4.4-11.9,9.6c-1,3-1.2,6.2-0.5,9.2c0.4,1.6,1.1,3.1,2,4.5c0.1,0.1,0.2,0.3,0.2,0.5l0.1,16.9
		v4.8c0,0.1,0,0.1,0,0.2v3.8c0,0,0,0.1,0,0.1v0.8c0,0,0,0.1,0,0.1v0.3c0,0.8,0.6,1.6,1.4,1.6c0.1,0,0.2,0,0.3,0c0.7,0,1.4,0,2.1,0
		c0.5,0,0.7,0.2,0.8,0.6c1.1,3.6,4.9,5.6,8.5,4.4c2.1-0.7,3.8-2.3,4.5-4.4c0.1-0.4,0.4-0.7,0.8-0.6c0,0,0,0,0,0
		c11.4,0,22.7,0,34.1,0c0.4,0,0.7,0.1,0.8,0.6c0.3,1,0.8,1.9,1.5,2.6c2.6,2.7,6.9,2.9,9.6,0.3c0.9-0.8,1.5-1.8,1.9-3
		c0.1-0.4,0.3-0.6,0.8-0.6c1.2,0,2.5,0,3.7,0c1.5,0,2-0.5,2-2c0-4.5,0-9,0-13.5C1074.8,1263.5,1074.5,1262.8,1074,1262.2z
		 M1002.2,1242.2c0-6.7,5.5-12.2,12.2-12.2c6.7,0,12.2,5.5,12.2,12.2s-5.5,12.2-12.2,12.2c0,0-0.1,0-0.1,0
		C1007.6,1254.3,1002.2,1248.9,1002.2,1242.2L1002.2,1242.2z M1005,1254.2c1.5,1.1,3.1,2,4.9,2.6c8,2.5,16.5-2.1,19-10.1
		c0.1-0.2,0.1-0.5,0.2-0.7c0.3-1.2,0.5-2.4,0.5-3.6c0-0.4,0.1-0.5,0.5-0.5c6.2,0,12.5,0,18.7,0c0.5,0,0.6,0.2,0.6,0.6c0,8,0,16,0,24
		c0,0.5-0.1,0.6-0.6,0.6l0,0c-14.4,0-28.7,0-43.1,0c-0.3,0-0.6,0-0.6-0.5C1005,1262.5,1005,1258.4,1005,1254.2L1005,1254.2z
		 M1005,1276.4c0-0.2,0-0.4,0-0.7c0-1.3,0-2.5,0-3.8l1.9-1.9l4.5,0L1005,1276.4z M1013.2,1282L1013.2,1282c-2.1,0-3.8-1.7-3.8-3.8
		c0,0,0,0,0,0v0c0-2.1,1.7-3.8,3.8-3.9c0.8,0,1.5,0.2,2.1,0.7c0.9,0.6,1.6,1.7,1.7,2.8c0,0.1,0,0.2,0,0.4
		C1016.9,1280.3,1015.3,1282,1013.2,1282L1013.2,1282z M1017.4,1272.9c-0.9-0.7-1.9-1.2-3-1.4l1.4-1.4h4.4L1017.4,1272.9z
		 M1020.3,1276.7c-0.3,0-0.6-0.2-0.7-0.5c0,0,0,0,0,0c-0.1-0.3-0.2-0.5-0.3-0.8l5.4-5.4h4.4l-6.6,6.6L1020.3,1276.7z M1027,1276.7
		l6.7-6.7h4.3l-6.6,6.6L1027,1276.7z M1035.9,1276.7l6.6-6.6c1.5,0,3,0,4.5,0l-6.7,6.7H1035.9z M1048.8,1276.7L1048.8,1276.7h-3.9
		l4.5-4.5c0,1.3,0,2.6,0,3.9C1049.4,1276.5,1049.3,1276.7,1048.8,1276.7L1048.8,1276.7z M1061.8,1282L1061.8,1282
		c-2.1-0.1-3.8-1.8-3.8-3.9c0.1-2.1,1.8-3.8,3.9-3.8c2.1,0.1,3.8,1.8,3.7,3.9C1065.6,1280.4,1063.9,1282,1061.8,1282
		C1061.8,1282,1061.8,1282,1061.8,1282L1061.8,1282z M1071.8,1276c0,0.6-0.2,0.8-0.7,0.7l0,0c-0.1,0-0.1,0-0.2,0
		c-0.7,0.1-1.4,0.1-2.1-0.1c-0.7-0.3-0.6-1.2-0.9-1.8c-1.3-2.4-4-3.8-6.7-3.4c-2.6,0.2-4.9,2-5.6,4.5c-0.2,0.6-0.5,0.8-1.1,0.8
		c-0.6-0.1-1.5,0.3-1.9-0.1c-0.3-0.4-0.1-1.2-0.1-1.9c0-3.4,0-6.8,0-10.2c0-3.8,0-7.6,0-11.4c0-0.6,0.2-0.7,0.7-0.7
		c2.2,0,6.3,0,8.5,0l10.2,11.8C1071.7,1267.5,1071.7,1272.6,1071.8,1276L1071.8,1276z"/>
</g>
</svg>
