<?xml version="1.0" encoding="utf-8"?>
<!-- Generator: Adobe Illustrator 25.2.3, SVG Export Plug-In . SVG Version: 6.00 Build 0)  -->
<svg version="1.1" id="Layer_1" xmlns="http://www.w3.org/2000/svg" xmlns:xlink="http://www.w3.org/1999/xlink" x="0px" y="0px"
	 viewBox="0 0 80 60" style="enable-background:new 0 0 80 60;" xml:space="preserve">
<style type="text/css">
	.st0{fill:#1A1A1A;}
</style>
<path id="Path_78948" class="st0" d="M58.7,36.9c-4-1.8-8-3.4-12.1-4.7c3.7-3.7,5.6-10,6-14.4c0.6-1.4,0.8-3,0.6-4.5
	c1.4-1,2.3-2.6,2.4-4.3c0-4.5-6.9-8-15.6-8S24.4,4.5,24.4,9c0.1,1.7,1,3.3,2.4,4.3c-0.2,1.5,0.1,3.1,0.6,4.5
	c0.5,4.4,2.4,10.7,6,14.4c-4.1,1.4-8.2,2.9-12.2,4.7c-5.5,2.9-5.5,14.9-5.5,20.8c0,0.7,0.6,1.3,1.3,1.3c0,0,0,0,0,0h45.8
	c0.7,0,1.3-0.6,1.3-1.3C64.2,51.9,64.2,39.8,58.7,36.9z M27,9c0-2.5,5.6-5.4,13-5.4S53,6.4,53,9s-5.6,5.4-13,5.4S27,11.5,27,9z
	 M39.4,17c0.2,0,0.4,0,0.6,0c0.2,0,0.4,0,0.6,0c3.5,0,6.9-0.7,10.1-2.1c-0.2,2.9-2.6,5.2-5.6,5.3H34.9c-2.9-0.1-5.3-2.3-5.6-5.3
	C32.5,16.2,35.9,17,39.4,17L39.4,17z M30.7,21.5c1.2,0.8,2.7,1.2,4.2,1.2h10.3c1.5,0,2.9-0.4,4.2-1.2c-1.4,5.5-4.6,11-9.3,11
	S32.1,27,30.7,21.5L30.7,21.5z M35.9,34.1c2.5,1.4,5.6,1.4,8.1,0c0.7,0.2,2,0.7,3.5,1.2l-4,8.4l-0.7-1.3c0.2-0.2,0.3-0.5,0.3-0.9
	v-3.8c0-0.7-0.6-1.3-1.3-1.3h-3.8c-0.7,0-1.3,0.6-1.3,1.3v3.8c0,0.3,0.1,0.6,0.3,0.9l-0.8,1.6l-4.3-8.5
	C33.8,34.8,35.2,34.4,35.9,34.1L35.9,34.1z M39.8,42.8h0.4l1.9,3.9L40,51.1l-2.2-4.3L39.8,42.8z M39.4,40.2v-1.2h1.2v1.2H39.4z
	 M18.4,56.4c0.1-10,1.4-15.8,4.1-17.1c2.3-1.1,4.7-2.1,7.1-3l9.3,18.3c0.3,0.6,1.1,0.9,1.7,0.6c0.3-0.1,0.5-0.3,0.6-0.6L50,36.2
	c2.6,0.9,5.1,1.9,7.5,3.1c2.6,1.4,4,7.1,4.1,17.2H18.4z"/>
</svg>
