<?xml version="1.0" encoding="utf-8"?>
<!-- Generator: Adobe Illustrator 25.2.3, SVG Export Plug-In . SVG Version: 6.00 Build 0)  -->
<svg version="1.1" id="Layer_1" xmlns="http://www.w3.org/2000/svg" xmlns:xlink="http://www.w3.org/1999/xlink" x="0px" y="0px"
	 viewBox="0 0 20 20" style="enable-background:new 0 0 20 20;" xml:space="preserve">
<style type="text/css">
	.st0{fill:#1A1A1A;}
</style>
<path id="Path_10" class="st0" d="M16.9,13c-1,0-2.1-0.2-3.1-0.5c-0.3-0.1-0.6,0-0.9,0.2L11,14.6C8.6,13.4,6.6,11.4,5.4,9l1.9-1.9
	c0.2-0.2,0.3-0.6,0.2-0.9C7.2,5.2,7,4.2,7,3.1c0-0.5-0.4-0.9-0.9-0.9h-3c-0.5,0-0.9,0.4-0.9,0.9c0,0,0,0,0,0
	c0,8.1,6.5,14.6,14.6,14.6c0,0,0,0,0,0c0.5,0,0.9-0.4,0.9-0.9c0,0,0,0,0,0v-3C17.7,13.4,17.4,13,16.9,13C16.9,13,16.9,13,16.9,13z
	 M16,10h1.7c0-4.3-3.5-7.7-7.7-7.7V4C13.3,4,16,6.7,16,10z M12.6,10h1.7c0-2.4-1.9-4.3-4.3-4.3v1.7C11.4,7.4,12.6,8.6,12.6,10
	L12.6,10z"/>
</svg>
