<?xml version="1.0" encoding="utf-8"?>
<!-- Generator: Adobe Illustrator 25.2.3, SVG Export Plug-In . SVG Version: 6.00 Build 0)  -->
<svg version="1.1" id="Layer_1" xmlns="http://www.w3.org/2000/svg" xmlns:xlink="http://www.w3.org/1999/xlink" x="0px" y="0px"
	 viewBox="0 0 150 150" style="enable-background:new 0 0 150 150;" xml:space="preserve">
<style type="text/css">
	.st0{clip-path:url(#SVGID_2_);}
	.st1{fill:#640E14;}
	.st2{fill:#600E14;}
	.st3{fill:#6B0F16;}
	.st4{clip-path:url(#SVGID_4_);}
	.st5{fill:#6C0F16;}
	.st6{fill:#680F15;}
	.st7{clip-path:url(#SVGID_6_);}
	.st8{fill:#AB1823;}
	.st9{clip-path:url(#SVGID_8_);}
	.st10{clip-path:url(#SVGID_10_);}
</style>
<g id="Group_40383" transform="translate(-778.436 -50.003)">
	<g id="Group_40382">
		<g id="Group_40358">
			<g>
				<defs>
					<path id="SVGID_1_" d="M869.5,156.3h-6.1c0.8-1.7,1.9-3.7,3-6h6.1C871.4,152.6,870.4,154.6,869.5,156.3z"/>
				</defs>
				<clipPath id="SVGID_2_">
					<use xlink:href="#SVGID_1_"  style="overflow:visible;"/>
				</clipPath>
				<g id="Group_40357" class="st0">
					<g id="Group_40356">
						<path id="Path_78966" class="st1" d="M869.5,156.3h-6.1c0.8-1.7,1.9-3.7,3-6h6.1C871.4,152.6,870.4,154.6,869.5,156.3"/>
					</g>
				</g>
			</g>
		</g>
		<g id="Group_40359">
			<path id="Path_78968" class="st2" d="M870,111.8h-6.1l-5.2-8h6.1L870,111.8z"/>
		</g>
		<g id="Group_40360">
			<path id="Path_78969" class="st2" d="M864.8,103.8h-6.1l5.2-7.7h6.1L864.8,103.8z"/>
		</g>
		<g id="Group_40361">
			<rect id="Rectangle_22631" x="851.5" y="93.4" class="st2" width="6.1" height="2.7"/>
		</g>
		<g id="Group_40362">
			<path id="Path_78970" class="st3" d="M856.6,111.8L856.6,111.8z"/>
		</g>
		<g id="Group_40365">
			<g>
				<defs>
					<path id="SVGID_3_" d="M856.5,168.4h-6.1c14.9,0,23-4.7,23-6.7c0-1.3-3.4-3.8-9.9-5.4h6.1c6.5,1.6,9.9,4.1,9.9,5.4
						C879.5,163.6,871.4,168.4,856.5,168.4z"/>
				</defs>
				<clipPath id="SVGID_4_">
					<use xlink:href="#SVGID_3_"  style="overflow:visible;"/>
				</clipPath>
				<g id="Group_40364" class="st4">
					<g id="Group_40363">
						<path id="Path_78971" class="st5" d="M856.5,168.4h-6.1c3.3,0,6.5-0.2,9.7-0.7h6.1C863,168.1,859.7,168.4,856.5,168.4"/>
						<path id="Path_78972" class="st6" d="M866.2,167.6h-6.1c2.8-0.4,5.6-1.2,8.3-2.2h6.1C871.8,166.4,869,167.2,866.2,167.6"/>
						<path id="Path_78973" class="st1" d="M874.5,165.4h-6.1c3.3-1.3,5-2.8,5-3.8c0-1.3-3.4-3.8-9.9-5.4h6.1
							c6.5,1.6,9.9,4.1,9.9,5.4C879.5,162.6,877.8,164,874.5,165.4"/>
					</g>
				</g>
			</g>
		</g>
		<g id="Group_40368">
			<g>
				<defs>
					<path id="SVGID_5_" d="M856.4,160.8h-6.1c-2.1,0-4.1-1.3-5-3.2h6.1C852.3,159.5,854.2,160.8,856.4,160.8z"/>
				</defs>
				<clipPath id="SVGID_6_">
					<use xlink:href="#SVGID_5_"  style="overflow:visible;"/>
				</clipPath>
				<g id="Group_40367" class="st7">
					<g id="Group_40366">
						<path id="Path_78975" class="st1" d="M856.4,160.8h-6.1c-2.1,0-4.1-1.3-5-3.2h6.1C852.3,159.5,854.3,160.8,856.4,160.8"/>
					</g>
				</g>
			</g>
		</g>
		<g id="Group_40369">
			<rect id="Rectangle_22632" x="841.9" y="109.1" class="st2" width="6.1" height="13.8"/>
		</g>
		<g id="Group_40370">
			<path id="Path_78977" class="st3" d="M848,109.1L848,109.1z"/>
		</g>
		<g id="Group_40371">
			<rect id="Rectangle_22633" x="841.9" y="92.3" class="st2" width="6.1" height="1.1"/>
		</g>
		<g id="Group_40372">
			<path id="Path_78978" class="st3" d="M846.7,122.9L846.7,122.9z"/>
		</g>
		<g id="Group_40373">
			<path id="Path_78979" class="st2" d="M851.4,157.6h-6.1l-20.5-40.7h6.1L851.4,157.6z"/>
		</g>
		<g id="Group_40374">
			<path id="Path_78980" class="st8" d="M872.6,150.3c7.8,2.1,13.5,5.9,13.5,11.4c0,8.7-14.8,13.4-29.6,13.4s-29.6-4.6-29.6-13.4
				c0-5.5,5.6-9.3,13.4-11.4l3,6.1c-6.5,1.6-9.8,4-9.8,5.3c0,2,8,6.7,23,6.7s23-4.7,23-6.7c0-1.3-3.4-3.8-9.9-5.4
				C870.4,154.6,871.4,152.6,872.6,150.3z"/>
		</g>
		<g id="Group_40377">
			<g>
				<defs>
					<path id="SVGID_7_" d="M856.5,175h-6.1c-14.7,0-29.6-4.6-29.6-13.4c0-5.5,5.6-9.3,13.4-11.4h6.1c-7.7,2.1-13.4,5.9-13.4,11.4
						C826.9,170.4,841.7,175,856.5,175z"/>
				</defs>
				<clipPath id="SVGID_8_">
					<use xlink:href="#SVGID_7_"  style="overflow:visible;"/>
				</clipPath>
				<g id="Group_40376" class="st9">
					<g id="Group_40375">
						<path id="Path_78981" class="st1" d="M856.5,175h-6.1c-14.7,0-29.6-4.6-29.6-13.4c0-4.4,3.6-7.7,9-9.9h6.1
							c-5.4,2.2-9,5.5-9,9.9C826.9,170.4,841.7,175,856.5,175"/>
						<path id="Path_78982" class="st6" d="M835.9,151.7h-6.1c1.4-0.6,2.9-1.1,4.4-1.5h6.1C838.8,150.7,837.3,151.2,835.9,151.7"/>
					</g>
				</g>
			</g>
		</g>
		<g id="Group_40378">
			<path id="Path_78984" class="st8" d="M882.1,90.9c4.2,8.2,4.2,17.8,0,26c-3.9,7.7-20.5,40.4-20.7,40.7c-0.9,2-2.9,3.2-5,3.2
				c-2.1,0-4.1-1.3-5-3.2l-20.5-40.7c-3.4-6.8-3.9-14.7-1.6-22c2.3-7.3,7.4-13.3,14.2-16.8c4-2,8.4-3.1,12.8-3.1
				C867.2,75,877.2,81.2,882.1,90.9z M870,111.8l-5.2-8l5.2-7.7h-12.4v-2.7H848v-1.1h-1.3v30.7h1.3v-13.8h8.5v2.7H870"/>
		</g>
		<g id="Group_40381">
			<g>
				<defs>
					<path id="SVGID_9_" d="M830.9,116.9h-6.1c-3.4-6.8-3.9-14.7-1.6-22c2.3-7.3,7.4-13.3,14.2-16.8c4-2,8.4-3.1,12.8-3.1h6.1
						c-4.5,0-8.8,1.1-12.8,3.1c-6.8,3.5-11.9,9.6-14.2,16.8C826.9,102.2,827.5,110.1,830.9,116.9z"/>
				</defs>
				<clipPath id="SVGID_10_">
					<use xlink:href="#SVGID_9_"  style="overflow:visible;"/>
				</clipPath>
				<g id="Group_40380" class="st10">
					<g id="Group_40379">
						<path id="Path_78985" class="st1" d="M830.9,116.9h-6.1c-3.4-6.8-3.9-14.7-1.6-22c2.3-7.3,7.4-13.3,14.2-16.8
							c0.7-0.3,1.4-0.7,2.1-0.9h6.1c-0.7,0.3-1.4,0.6-2.1,0.9c-6.8,3.5-11.9,9.6-14.2,16.8C826.9,102.2,827.5,110.1,830.9,116.9"/>
						<path id="Path_78986" class="st6" d="M845.6,77.1h-6.1c2-0.8,4.1-1.4,6.2-1.8h6.1C849.7,75.7,847.6,76.3,845.6,77.1"/>
						<path id="Path_78987" class="st5" d="M851.8,75.4h-6.1c1.5-0.2,3-0.4,4.6-0.4h6.1C854.8,75,853.3,75.1,851.8,75.4"/>
					</g>
				</g>
			</g>
		</g>
	</g>
</g>
</svg>
