<?xml version="1.0" encoding="utf-8"?>
<!-- Generator: Adobe Illustrator 25.2.3, SVG Export Plug-In . SVG Version: 6.00 Build 0)  -->
<svg version="1.1" id="Layer_1" xmlns="http://www.w3.org/2000/svg" xmlns:xlink="http://www.w3.org/1999/xlink" x="0px" y="0px"
	 viewBox="0 0 150 150" style="enable-background:new 0 0 150 150;" xml:space="preserve">
<style type="text/css">
	.st0{fill:#8C666D;}
	.st1{fill:#7E5C63;}
	.st2{clip-path:url(#SVGID_2_);}
	.st3{fill:#836066;}
	.st4{fill:#88636A;}
	.st5{fill:#8D676E;}
	.st6{clip-path:url(#SVGID_4_);}
	.st7{fill:#835F66;}
	.st8{clip-path:url(#SVGID_6_);}
	.st9{clip-path:url(#SVGID_8_);}
	.st10{clip-path:url(#SVGID_10_);}
	.st11{fill:#876269;}
	.st12{clip-path:url(#SVGID_12_);}
	.st13{clip-path:url(#SVGID_14_);}
	.st14{fill:#E1A4B0;}
	.st15{clip-path:url(#SVGID_16_);}
	.st16{clip-path:url(#SVGID_18_);}
	.st17{clip-path:url(#SVGID_20_);}
	.st18{clip-path:url(#SVGID_22_);}
	.st19{clip-path:url(#SVGID_24_);}
	.st20{clip-path:url(#SVGID_26_);}
	.st21{clip-path:url(#SVGID_28_);}
	.st22{clip-path:url(#SVGID_30_);}
</style>
<g id="Group_40492" transform="translate(-1129.994 -50.004)">
	<g id="Group_40491">
		<g id="Group_40419">
			<path id="Path_79020" class="st0" d="M1250.4,127.4L1250.4,127.4z"/>
		</g>
		<g id="Group_40420">
			<rect id="Rectangle_22634" x="1238" y="103.2" class="st1" width="6.1" height="24"/>
		</g>
		<g id="Group_40421">
			<rect id="Rectangle_22635" x="1238" y="86.9" class="st1" width="6.1" height="9.5"/>
		</g>
		<g id="Group_40422">
			<rect id="Rectangle_22636" x="1238" y="78.2" class="st1" width="6.1" height="1.7"/>
		</g>
		<g id="Group_40425">
			<g>
				<defs>
					<path id="SVGID_1_" d="M1244.1,78.2h-6.1c0-1.7,1.3-3.1,3-3.1c0,0,0.1,0,0.1,0h6.1c-1.7,0-3.1,1.3-3.1,3
						C1244.1,78.1,1244.1,78.1,1244.1,78.2z"/>
				</defs>
				<clipPath id="SVGID_2_">
					<use xlink:href="#SVGID_1_"  style="overflow:visible;"/>
				</clipPath>
				<g id="Group_40424" class="st2">
					<g id="Group_40423">
						<path id="Path_79021" class="st3" d="M1244.1,78.2h-6.1c0-1.3,0.7-2.4,1.9-2.9h6.1C1244.8,75.7,1244.1,76.9,1244.1,78.2"/>
						<path id="Path_79022" class="st4" d="M1246,75.2h-6.1c0.2-0.1,0.5-0.2,0.7-0.2h6.1C1246.4,75.1,1246.2,75.2,1246,75.2"/>
						<path id="Path_79023" class="st5" d="M1246.7,75h-6.1c0.2,0,0.4,0,0.5,0h6.1C1247,75,1246.9,75,1246.7,75"/>
					</g>
				</g>
			</g>
		</g>
		<g id="Group_40426">
			<path id="Path_79025" class="st0" d="M1239.4,127.2L1239.4,127.2z"/>
		</g>
		<g id="Group_40427">
			<rect id="Rectangle_22637" x="1230.2" y="130.4" class="st1" width="6.1" height="6.7"/>
		</g>
		<g id="Group_40430">
			<g>
				<defs>
					<path id="SVGID_3_" d="M1236.2,130.4h-6.1c0-1.7,1.4-3.1,3.1-3.2h6.1C1237.6,127.2,1236.2,128.6,1236.2,130.4z"/>
				</defs>
				<clipPath id="SVGID_4_">
					<use xlink:href="#SVGID_3_"  style="overflow:visible;"/>
				</clipPath>
				<g id="Group_40429" class="st6">
					<g id="Group_40428">
						<path id="Path_79026" class="st3" d="M1236.2,130.4h-6.1c0-1.3,0.8-2.4,2-2.9h6.1C1237,127.9,1236.2,129.1,1236.2,130.4"/>
						<path id="Path_79027" class="st4" d="M1238.2,127.4h-6.1c0.2-0.1,0.4-0.2,0.7-0.2h6.1C1238.7,127.3,1238.4,127.4,1238.2,127.4
							"/>
						<path id="Path_79028" class="st5" d="M1238.9,127.3h-6.1c0.2,0,0.3,0,0.5,0h6.1C1239.2,127.2,1239.1,127.2,1238.9,127.3"/>
					</g>
				</g>
			</g>
		</g>
		<g id="Group_40431">
			<path id="Path_79030" class="st1" d="M1244.1,103.2h-6.1l-17.6-8.9h6.1L1244.1,103.2z"/>
		</g>
		<g id="Group_40432">
			<path id="Path_79031" class="st7" d="M1226.5,88.8h-6.1l17.6-8.9h6.1L1226.5,88.8z"/>
		</g>
		<g id="Group_40435">
			<g>
				<defs>
					<path id="SVGID_5_" d="M1226.5,94.3h-6.1c-1.5-0.8-2.1-2.6-1.3-4.1c0.3-0.6,0.8-1,1.3-1.3h6.1c-1.5,0.8-2.1,2.6-1.3,4.1
						C1225.5,93.5,1226,94,1226.5,94.3z"/>
				</defs>
				<clipPath id="SVGID_6_">
					<use xlink:href="#SVGID_5_"  style="overflow:visible;"/>
				</clipPath>
				<g id="Group_40434" class="st8">
					<g id="Group_40433">
						<path id="Path_79032" class="st3" d="M1226.5,94.3h-6.1c-1.5-0.8-2.1-2.6-1.3-4.1c0.3-0.6,0.8-1,1.3-1.3h6.1
							c-1.5,0.8-2.1,2.6-1.3,4.1C1225.5,93.5,1226,94,1226.5,94.3"/>
					</g>
				</g>
			</g>
		</g>
		<g id="Group_40436">
			<path id="Path_79034" class="st0" d="M1218.7,137.1L1218.7,137.1z"/>
		</g>
		<g id="Group_40439">
			<g>
				<defs>
					<path id="SVGID_7_" d="M1215.8,104.4h-6.1c0.4-0.1,0.7-0.2,1.1-0.2h6.1C1216.5,104.2,1216.1,104.3,1215.8,104.4z"/>
				</defs>
				<clipPath id="SVGID_8_">
					<use xlink:href="#SVGID_7_"  style="overflow:visible;"/>
				</clipPath>
				<g id="Group_40438" class="st9">
					<g id="Group_40437">
						<path id="Path_79035" class="st4" d="M1215.8,104.4h-6.1c0.2,0,0.3-0.1,0.5-0.1h6.1C1216.1,104.3,1215.9,104.3,1215.8,104.4"
							/>
						<path id="Path_79036" class="st5" d="M1216.2,104.3h-6.1c0.2,0,0.4-0.1,0.6-0.1h6.1C1216.7,104.2,1216.4,104.2,1216.2,104.3"
							/>
					</g>
				</g>
			</g>
		</g>
		<g id="Group_40440">
			<rect id="Rectangle_22638" x="1209.5" y="140.3" class="st1" width="6.1" height="6.7"/>
		</g>
		<g id="Group_40443">
			<g>
				<defs>
					<path id="SVGID_9_" d="M1215.6,140.3h-6.1c0-1.7,1.4-3.1,3.1-3.2h6.1C1217,137.1,1215.6,138.5,1215.6,140.3z"/>
				</defs>
				<clipPath id="SVGID_10_">
					<use xlink:href="#SVGID_9_"  style="overflow:visible;"/>
				</clipPath>
				<g id="Group_40442" class="st10">
					<g id="Group_40441">
						<path id="Path_79038" class="st3" d="M1215.6,140.3h-6.1c0-1.3,0.8-2.4,2-2.9h6.1C1216.3,137.8,1215.6,139,1215.6,140.3"/>
						<path id="Path_79039" class="st4" d="M1217.5,137.3h-6.1c0.2-0.1,0.4-0.2,0.7-0.2h6.1C1218,137.2,1217.7,137.2,1217.5,137.3"
							/>
						<path id="Path_79040" class="st5" d="M1218.2,137.1h-6.1c0.2,0,0.3,0,0.5,0h6.1C1218.5,137.1,1218.4,137.1,1218.2,137.1"/>
					</g>
				</g>
			</g>
		</g>
		<g id="Group_40444">
			<path id="Path_79042" class="st11" d="M1209,106.2h-6.1l6.8-1.8h6.1L1209,106.2z"/>
		</g>
		<g id="Group_40447">
			<g>
				<defs>
					<path id="SVGID_11_" d="M1207.5,114.9h-6.1c-1.3,0-2.5-0.6-3.3-1.6h6.1C1205,114.3,1206.2,114.9,1207.5,114.9z"/>
				</defs>
				<clipPath id="SVGID_12_">
					<use xlink:href="#SVGID_11_"  style="overflow:visible;"/>
				</clipPath>
				<g id="Group_40446" class="st12">
					<g id="Group_40445">
						<path id="Path_79043" class="st3" d="M1207.5,114.9h-6.1c-1.3,0-2.5-0.6-3.3-1.6h6.1C1205,114.3,1206.2,114.9,1207.5,114.9"/>
					</g>
				</g>
			</g>
		</g>
		<g id="Group_40448">
			<path id="Path_79045" class="st1" d="M1204.2,113.3h-6.1l-4.2-5.4h6.1L1204.2,113.3z"/>
		</g>
		<g id="Group_40449">
			<path id="Path_79046" class="st1" d="M1199.9,142.5h-6.1l-0.2-12.2h6.1L1199.9,142.5z"/>
		</g>
		<g id="Group_40450">
			<path id="Path_79047" class="st0" d="M1198,147L1198,147z"/>
		</g>
		<g id="Group_40451">
			<rect id="Rectangle_22639" x="1188.8" y="150.2" class="st1" width="6.1" height="6.7"/>
		</g>
		<g id="Group_40454">
			<g>
				<defs>
					<path id="SVGID_13_" d="M1194.9,150.2h-6.1c0-1.7,1.4-3.1,3.1-3.2h6.1C1196.3,147,1194.9,148.4,1194.9,150.2z"/>
				</defs>
				<clipPath id="SVGID_14_">
					<use xlink:href="#SVGID_13_"  style="overflow:visible;"/>
				</clipPath>
				<g id="Group_40453" class="st13">
					<g id="Group_40452">
						<path id="Path_79048" class="st3" d="M1194.9,150.2h-6.1c0-1.3,0.8-2.4,2-2.9h6.1C1195.7,147.7,1194.9,148.9,1194.9,150.2"/>
						<path id="Path_79049" class="st4" d="M1196.8,147.2h-6.1c0.2-0.1,0.4-0.2,0.7-0.2h6.1C1197.3,147.1,1197.1,147.1,1196.8,147.2
							"/>
						<path id="Path_79050" class="st5" d="M1197.5,147h-6.1c0.2,0,0.3,0,0.5,0h6.1C1197.8,147,1197.7,147,1197.5,147"/>
					</g>
				</g>
			</g>
		</g>
		<g id="Group_40455">
			<ellipse id="Ellipse_79" class="st14" cx="1197.8" cy="84.6" rx="8.7" ry="8.7"/>
		</g>
		<g id="Group_40458">
			<g>
				<defs>
					<path id="SVGID_15_" d="M1197.8,93.3h-6.1c-4.8,0-8.7-3.9-8.7-8.7s3.9-8.7,8.7-8.7h6.1c-4.8,0-8.7,3.9-8.7,8.7
						S1193,93.3,1197.8,93.3z"/>
				</defs>
				<clipPath id="SVGID_16_">
					<use xlink:href="#SVGID_15_"  style="overflow:visible;"/>
				</clipPath>
				<g id="Group_40457" class="st15">
					<g id="Group_40456">
						<path id="Path_79052" class="st3" d="M1197.8,93.3h-6.1c-4.8,0-8.7-4-8.7-8.8c0-3.5,2.2-6.7,5.4-8h6.1
							c-4.5,1.9-6.6,7-4.7,11.4C1191.1,91.2,1194.3,93.3,1197.8,93.3"/>
						<path id="Path_79053" class="st4" d="M1194.5,76.5h-6.1c0.6-0.3,1.2-0.4,1.9-0.5h6.1C1195.8,76.1,1195.1,76.2,1194.5,76.5"/>
						<path id="Path_79054" class="st5" d="M1196.4,76h-6.1c0.5-0.1,0.9-0.1,1.4-0.1h6.1C1197.3,75.8,1196.9,75.9,1196.4,76"/>
					</g>
				</g>
			</g>
		</g>
		<g id="Group_40459">
			<path id="Path_79056" class="st1" d="M1199.7,130.3h-6.1l-13.7-4.4h6.1L1199.7,130.3z"/>
		</g>
		<g id="Group_40462">
			<g>
				<defs>
					<path id="SVGID_17_" d="M1183.8,95.5h-6.1c1.4-0.7,3-1.1,4.6-1.1h6.1C1186.8,94.4,1185.2,94.8,1183.8,95.5z"/>
				</defs>
				<clipPath id="SVGID_18_">
					<use xlink:href="#SVGID_17_"  style="overflow:visible;"/>
				</clipPath>
				<g id="Group_40461" class="st16">
					<g id="Group_40460">
						<path id="Path_79057" class="st3" d="M1183.8,95.5h-6.1c0.2-0.1,0.5-0.2,0.7-0.3h6.1C1184.3,95.3,1184,95.4,1183.8,95.5"/>
						<path id="Path_79058" class="st4" d="M1184.5,95.2h-6.1c0.7-0.3,1.5-0.5,2.2-0.6h6.1C1186,94.7,1185.2,94.9,1184.5,95.2"/>
						<path id="Path_79059" class="st5" d="M1186.8,94.6h-6.1c0.5-0.1,1.1-0.1,1.6-0.1h6.1C1187.8,94.4,1187.3,94.5,1186.8,94.6"/>
					</g>
				</g>
			</g>
		</g>
		<g id="Group_40463">
			<path id="Path_79061" class="st1" d="M1182.6,120.6h-6.1l1.7-16h6.1L1182.6,120.6z"/>
		</g>
		<g id="Group_40466">
			<g>
				<defs>
					<path id="SVGID_19_" d="M1186,125.8h-6.1c-2.2-0.7-3.7-2.9-3.4-5.3h6.1C1182.3,122.9,1183.8,125.1,1186,125.8z"/>
				</defs>
				<clipPath id="SVGID_20_">
					<use xlink:href="#SVGID_19_"  style="overflow:visible;"/>
				</clipPath>
				<g id="Group_40465" class="st17">
					<g id="Group_40464">
						<path id="Path_79062" class="st3" d="M1186,125.8h-6.1c-2.2-0.7-3.7-2.9-3.4-5.3h6.1C1182.3,122.9,1183.8,125.1,1186,125.8"/>
					</g>
				</g>
			</g>
		</g>
		<g id="Group_40467">
			<path id="Path_79064" class="st14" d="M1181.5,129.5c0.9,0.7,1.9,1.2,2.9,1.5l6.6,2.1l-2.9,19.3h-10L1181.5,129.5z"/>
		</g>
		<g id="Group_40468">
			<path id="Path_79065" class="st1" d="M1178.1,152.4h-6.1l3.4-22.8h6.1L1178.1,152.4z"/>
		</g>
		<g id="Group_40469">
			<path id="Path_79066" class="st0" d="M1177.3,156.9L1177.3,156.9z"/>
		</g>
		<g id="Group_40470">
			<path id="Path_79067" class="st3" d="M1174.6,100h-6.1l9.2-4.4h6.1L1174.6,100z"/>
		</g>
		<g id="Group_40471">
			<rect id="Rectangle_22640" x="1168.1" y="160.1" class="st1" width="6.1" height="8.6"/>
		</g>
		<g id="Group_40474">
			<g>
				<defs>
					<path id="SVGID_21_" d="M1174.2,160.1h-6.1c0-1.7,1.4-3.1,3.1-3.2h6.1C1175.6,156.9,1174.2,158.3,1174.2,160.1z"/>
				</defs>
				<clipPath id="SVGID_22_">
					<use xlink:href="#SVGID_21_"  style="overflow:visible;"/>
				</clipPath>
				<g id="Group_40473" class="st18">
					<g id="Group_40472">
						<path id="Path_79068" class="st3" d="M1174.2,160.1h-6.1c0-1.3,0.8-2.4,2-2.9h6.1C1175,157.6,1174.2,158.8,1174.2,160.1"/>
						<path id="Path_79069" class="st4" d="M1176.2,157.1h-6.1c0.2-0.1,0.4-0.2,0.7-0.2h6.1C1176.6,157,1176.4,157,1176.2,157.1"/>
						<path id="Path_79070" class="st5" d="M1176.8,156.9h-6.1c0.2,0,0.3,0,0.5,0h6.1C1177.2,156.9,1177,156.9,1176.8,156.9"/>
					</g>
				</g>
			</g>
		</g>
		<g id="Group_40477">
			<g>
				<defs>
					<path id="SVGID_23_" d="M1173.6,117.7h-6.1c-0.4,0-0.8-0.1-1.2-0.2h6.1C1172.8,117.6,1173.2,117.7,1173.6,117.7z"/>
				</defs>
				<clipPath id="SVGID_24_">
					<use xlink:href="#SVGID_23_"  style="overflow:visible;"/>
				</clipPath>
				<g id="Group_40476" class="st19">
					<g id="Group_40475">
						<path id="Path_79072" class="st3" d="M1173.6,117.7h-6.1c-0.4,0-0.8-0.1-1.2-0.2h6.1C1172.8,117.6,1173.2,117.7,1173.6,117.7"
							/>
					</g>
				</g>
			</g>
		</g>
		<g id="Group_40480">
			<g>
				<defs>
					<path id="SVGID_25_" d="M1172.4,102.6h-6.1c0.3-1.1,1.1-2.1,2.2-2.6h6.1C1173.5,100.5,1172.7,101.4,1172.4,102.6z"/>
				</defs>
				<clipPath id="SVGID_26_">
					<use xlink:href="#SVGID_25_"  style="overflow:visible;"/>
				</clipPath>
				<g id="Group_40479" class="st20">
					<g id="Group_40478">
						<path id="Path_79074" class="st3" d="M1172.4,102.6h-6.1c0.3-1.1,1.1-2.1,2.2-2.6h6.1C1173.5,100.5,1172.7,101.4,1172.4,102.6
							"/>
					</g>
				</g>
			</g>
		</g>
		<g id="Group_40481">
			<path id="Path_79076" class="st1" d="M1169.6,112.4h-6.1l2.8-9.8h6.1L1169.6,112.4z"/>
		</g>
		<g id="Group_40484">
			<g>
				<defs>
					<path id="SVGID_27_" d="M1172.4,117.5h-6.1c-2.2-0.7-3.5-3-2.8-5.2h6.1C1169,114.6,1170.2,116.9,1172.4,117.5z"/>
				</defs>
				<clipPath id="SVGID_28_">
					<use xlink:href="#SVGID_27_"  style="overflow:visible;"/>
				</clipPath>
				<g id="Group_40483" class="st21">
					<g id="Group_40482">
						<path id="Path_79077" class="st3" d="M1172.4,117.5h-6.1c-2.2-0.7-3.5-3-2.8-5.2h6.1C1169,114.6,1170.2,116.9,1172.4,117.5"/>
					</g>
				</g>
			</g>
		</g>
		<g id="Group_40485">
			<path id="Path_79079" class="st14" d="M1188.4,94.4c0.7,0,1.5,0.1,2.2,0.3l7.7,1.7c1.8,0.3,3.5,1.1,4.9,2.4
				c0.2,0.2,0.3,0.4,0.5,0.6l5.2,6.7l6.8-1.8c0.4-0.1,0.7-0.2,1.1-0.2c2.3,0.1,4.1,1.9,4.1,4.2c0,1.8-1.3,3.4-3.1,3.9l-9.4,2.4
				c-0.3,0.1-0.6,0.1-1,0.1c-1.3,0-2.5-0.6-3.3-1.6l-4.2-5.4l-2.5,11.1l8.7,2.7c2,0.7,3.4,2.6,3.4,4.7l0.2,16h-9.9l-0.2-12.2
				l-13.7-4.4c-2.2-0.7-3.7-2.9-3.4-5.3l1.7-16l-4.4,2.1l-2.3,8c-0.5,1.8-2.1,3-4,3.1c-0.4,0-0.8-0.1-1.2-0.2
				c-2.2-0.7-3.5-3-2.8-5.2l2.8-9.8c0.3-1.1,1.1-2.1,2.2-2.6l9.2-4.4C1185.2,94.8,1186.8,94.4,1188.4,94.4z"/>
		</g>
		<g id="Group_40486">
			<path id="Path_79080" class="st0" d="M1162.3,168.7L1162.3,168.7z"/>
		</g>
		<g id="Group_40489">
			<g>
				<defs>
					<path id="SVGID_29_" d="M1162.3,175h-6.1c-1.7,0-3.1-1.3-3.1-3c0,0,0-0.1,0-0.1c0-1.7,1.4-3.1,3.1-3.2h6.1
						c-1.7,0-3.1,1.4-3.1,3.2c0,1.7,1.3,3.1,3,3.2C1162.2,175,1162.2,175,1162.3,175z"/>
				</defs>
				<clipPath id="SVGID_30_">
					<use xlink:href="#SVGID_29_"  style="overflow:visible;"/>
				</clipPath>
				<g id="Group_40488" class="st22">
					<g id="Group_40487">
						<path id="Path_79081" class="st3" d="M1162.3,175h-6.1c-1.7,0-3.1-1.3-3.1-3c0,0,0-0.1,0-0.1c0-1.3,0.8-2.4,2-2.9h6.1
							c-1.2,0.5-2,1.6-2,2.9c0,1.7,1.3,3.1,3,3.2C1162.2,175,1162.2,175,1162.3,175"/>
						<path id="Path_79082" class="st4" d="M1161.1,168.9h-6.1c0.2-0.1,0.4-0.2,0.7-0.2h6.1C1161.5,168.8,1161.3,168.8,1161.1,168.9
							"/>
						<path id="Path_79083" class="st5" d="M1161.8,168.7h-6.1c0.2,0,0.3,0,0.5,0h6.1C1162.1,168.7,1161.9,168.7,1161.8,168.7"/>
					</g>
				</g>
			</g>
		</g>
		<g id="Group_40490">
			<path id="Path_79085" class="st14" d="M1253.8,127.4c1.7,0,3.1,1.4,3.1,3.1c0,1.7-1.4,3.1-3.1,3.2h-11.3v6.7
				c0,1.7-1.4,3.1-3.1,3.2h-17.6v6.7c0,1.7-1.4,3.1-3.1,3.2h-17.6v6.6c0,1.7-1.4,3.2-3.1,3.2h-17.5v8.6c0,1.7-1.4,3.1-3.1,3.2h-15.1
				c-1.7,0-3.1-1.3-3.1-3c0,0,0-0.1,0-0.1c0-1.7,1.4-3.1,3.1-3.2h11.9v-8.6c0-1.7,1.4-3.1,3.1-3.2h17.6v-6.7c0-1.7,1.4-3.1,3.1-3.1
				h17.6v-6.7c0-1.7,1.4-3.1,3.1-3.2h17.6v-6.7c0-1.7,1.4-3.1,3.1-3.2h4.7v-24l-17.6-8.9c-1.5-0.8-2.1-2.6-1.3-4.1
				c0.3-0.6,0.8-1,1.3-1.3l17.6-8.9v-1.7c0-1.7,1.3-3.1,3-3.1c0,0,0.1,0,0.1,0c1.7,0,3.1,1.4,3.1,3.2v49.3H1253.8z M1244.1,96.4
				v-9.5l-9.3,4.7L1244.1,96.4"/>
		</g>
	</g>
</g>
</svg>
